<svg xmlns="http://www.w3.org/2000/svg" version="1.0" width="631.000000pt" height="980.000000pt" viewBox="0 0 631.000000 980.000000" preserveAspectRatio="xMidYMid meet">

<g transform="translate(0.000000,980.000000) scale(0.100000,-0.100000)" fill="currentcolor" stroke="none">
<path d="M2325 9784 c-435 -79 -786 -379 -924 -790 -204 -607 121 -1272 727 -1488 108 -38 105 -40 131 62 12 48 23 93 24 100 1 7 -28 23 -71 38 -318 108 -553 367 -633 701 -31 129 -30 314 4 443 138 533 668 843 1196 699 557 -151 854 -767 630 -1305 -86 -206 -270 -399 -472 -495 -34 -16 -68 -29 -74 -29 -7 0 -24 23 -38 50 -34 68 -91 129 -140 151 -234 107 -425 -227 -425 -741 0 -235 34 -417 105 -566 39 -80 108 -158 160 -180 112 -47 229 18 306 169 16 31 33 57 37 57 18 0 140 -44 192 -68 75 -37 145 -108 160 -163 18 -67 9 -175 -20 -233 -41 -80 -129 -140 -205 -138 -23 0 -109 15 -191 33 -128 29 -168 34 -284 34 -116 0 -156 -5 -284 -34 -171 -38 -217 -41 -267 -17 -97 46 -151 127 -157 239 -9 142 37 212 182 282 51 24 134 54 189 67 70 16 97 27 97 38 0 8 -9 48 -20 88 -27 103 -50 276 -50 382 0 73 -3 90 -15 90 -23 0 -155 -55 -262 -109 -373 -187 -705 -511 -975 -951 -815 -1328 -1089 -2233 -899 -2970 122 -472 353 -902 662 -1232 353 -378 792 -605 1334 -690 120 -19 182 -22 435 -22 195 -1 327 4 390 12 737 104 1289 458 1693 1087 172 267 332 665 394 980 28 143 26 547 -5 715 -101 558 -343 1134 -815 1935 -200 340 -335 526 -515 709 -127 129 -253 234 -382 318 -89 59 -246 145 -289 159 -7 3 -15 38 -21 94 -4 50 -11 117 -15 150 l-7 60 97 44 c54 25 135 71 180 103 526 375 661 1078 310 1618 -63 96 -239 272 -335 335 -250 163 -565 229 -845 179z m332 -1998 c34 -28 77 -102 65 -110 -9 -5 -169 -26 -203 -26 -12 0 -25 -27 -48 -94 -17 -52 -31 -100 -31 -107 0 -14 237 -6 305 10 22 6 43 7 48 2 4 -4 10 -52 14 -106 6 -91 5 -98 -11 -92 -58 23 -190 48 -273 54 l-96 6 6 -179 c6 -177 19 -275 51 -385 l17 -56 104 -5 c58 -3 108 -8 112 -12 21 -20 -78 -136 -117 -136 -30 0 -79 48 -109 109 -137 270 -136 784 2 1044 54 102 108 130 164 83z m118 -2255 c634 -95 1172 -511 1430 -1106 95 -221 134 -400 142 -658 7 -224 -5 -348 -52 -532 -79 -311 -229 -581 -450 -813 -313 -328 -690 -517 -1145 -573 -146 -18 -417 -6 -567 25 -197 42 -409 120 -558 208 -710 416 -1067 1226 -890 2018 142 637 613 1157 1231 1359 109 36 280 74 374 84 113 12 364 6 485 -12z" fill="currentcolor"/>
<path d="M2254 5405 c-265 -40 -498 -132 -730 -286 -139 -93 -342 -293 -436 -429 -282 -409 -378 -875 -278 -1358 43 -207 152 -454 278 -632 83 -117 289 -325 400 -404 596 -422 1371 -434 1972 -31 373 251 636 644 730 1090 27 129 38 402 21 541 -91 748 -647 1347 -1387 1495 -140 27 -434 35 -570 14z" fill="currentcolor"/>
<path d="M4889 2582 c-31 -27 -32 -32 -40 -138 -35 -453 -211 -789 -531 -1014 -209 -148 -513 -251 -815 -278 -110 -10 -128 -18 -149 -68 -18 -42 -2 -96 33 -120 69 -45 421 9 673 103 518 193 853 581 959 1111 27 134 44 332 32 364 -26 68 -108 88 -162 40z" fill="currentcolor"/>
</g>
</svg>